<mxfile host="app.diagrams.net" modified="2023-09-07T09:49:58.144Z" agent="Mozilla/5.0 (Macintosh; Intel Mac OS X 10_15_7) AppleWebKit/537.36 (KHTML, like Gecko) Chrome/115.0.0.0 Safari/537.36" version="21.6.3" etag="FbL4sMyEk8wTpt_Lkieh" type="github">
  <diagram name="Page-1" id="x6axQz3fHqevGrwTB3aZ">
    <mxGraphModel>
      <root>
        <mxCell id="0" />
        <mxCell id="1" parent="0" />
      </root>
    </mxGraphModel>
  </diagram>
</mxfile>
